<svg xmlns="http://www.w3.org/2000/svg" width="20" height="20"><path d="M6.5 14a.5.5 0 0 1-.354-.853l7-7a.5.5 0 0 1 .707.707l-7 7a.498.498 0 0 1-.354.146z" fill="#aaa" /><path d="M14 11a4.89 4.89 0 0 1-.555-.031.5.5 0 0 1 .11-.994A4.004 4.004 0 0 0 18 5.999c0-2.206-1.794-4-4-4a4.004 4.004 0 0 0-3.976 4.445.5.5 0 0 1-.994.11A5.006 5.006 0 0 1 14 .999c2.757 0 5 2.243 5 5s-2.243 5-5 5zM6 19c-2.757 0-5-2.243-5-5a5.006 5.006 0 0 1 5.555-4.969.5.5 0 0 1-.11.994A4.004 4.004 0 0 0 2 14.001c0 2.206 1.794 4 4 4a4.004 4.004 0 0 0 3.976-4.445.5.5 0 0 1 .994-.11 5.006 5.006 0 0 1-4.969 5.555z" fill="#aaa" /></svg>