<svg width="109" height="19" xmlns="http://www.w3.org/2000/svg"><g fill="none"><path d="M2.424 18V4.992L12.84 18h1.824V.984h-2.16v13.248L1.944.96H.264V18h2.16zm23.232.12c1.152 0 2.22-.236 3.204-.708a8.085 8.085 0 002.544-1.896 8.967 8.967 0 001.68-2.748 8.984 8.984 0 00.036-6.42 9.023 9.023 0 00-1.632-2.772 8.36 8.36 0 00-2.52-1.98c-.976-.504-2.064-.756-3.264-.756-1.152 0-2.22.236-3.204.708a8.138 8.138 0 00-2.556 1.908c-.72.8-1.284 1.72-1.692 2.76a8.858 8.858 0 00-.612 3.264c0 1.088.192 2.152.576 3.192a8.84 8.84 0 001.632 2.772 8.084 8.084 0 002.532 1.944c.984.488 2.076.732 3.276.732zm.024-1.944c-.88 0-1.68-.184-2.4-.552a5.75 5.75 0 01-1.848-1.488 6.93 6.93 0 01-1.188-2.148 7.606 7.606 0 01-.012-4.956c.272-.8.66-1.512 1.164-2.136a5.906 5.906 0 011.836-1.512c.72-.384 1.536-.576 2.448-.576.864 0 1.652.184 2.364.552.712.368 1.328.86 1.848 1.476s.92 1.328 1.2 2.136c.28.808.42 1.644.42 2.508 0 .816-.132 1.624-.396 2.424a6.861 6.861 0 01-1.152 2.148 5.98 5.98 0 01-1.836 1.536c-.72.392-1.536.588-2.448.588z" fill="#110404"/><path d="M38.856 18V.96h-2.16V18h2.16zm6.24 0V4.824l5.688 10.104h1.224l5.664-10.104V18h2.16V.96h-2.256l-6.192 11.064L45.216.96h-2.28V18h2.16zm19.32 0l1.992-4.992h7.152L75.576 18h2.304L70.92.96h-1.824L62.112 18h2.304zm8.664-6.672h-6.24l3.168-7.872 3.072 7.872zM87 18.12c1.952 0 3.68-.808 5.184-2.424V18h1.824V9.504h-5.496v1.632h3.672v2.352c-1.488 1.792-3.16 2.688-5.016 2.688a5.282 5.282 0 01-2.352-.528 5.795 5.795 0 01-1.872-1.452 7.08 7.08 0 01-1.248-2.136 7.266 7.266 0 01-.456-2.58c0-.864.136-1.7.408-2.508A6.861 6.861 0 0182.8 4.836a5.786 5.786 0 011.8-1.488c.704-.376 1.488-.564 2.352-.564 1.056 0 2.008.24 2.856.72.848.48 1.528 1.216 2.04 2.208l1.656-1.152a6.842 6.842 0 00-2.436-2.688C90.004 1.184 88.648.84 87 .84a7.283 7.283 0 00-3.168.696 7.834 7.834 0 00-2.52 1.884 8.942 8.942 0 00-1.656 2.736 8.985 8.985 0 00-.6 3.276c0 1.104.204 2.176.612 3.216a9.416 9.416 0 001.668 2.772 8.333 8.333 0 002.508 1.956A6.82 6.82 0 0087 18.12zm21.864-.12v-1.92h-9.408V10.2h7.992V8.4h-7.992V2.88h9.192V.96H97.296V18h11.568z" fill="#999"/></g></svg>